# xmcd CD database file generated by Grip 3.0.3
# 
# Track frame offsets:
#       150
#       10102
#       21616
#       31593
#       44107
#       60212
#       72835
#       85405
#       94986
#       105803
#       123970
#       143747
#       160385
#       171535
#       190934
# 
# Disc length: 2811 seconds
# 
# Revision: 0
# Processed by: cddbd v1.4PL0 Copyright (c) Steve Scherf et al.
# Submitted via: Grip 3.0.3
# 
DISCID=c50af90f
DTITLE=John Lee Hooker - Boom Boom - Disc 2
DYEAR=2002
DGENRE=blues
TTITLE0=I Wanna Walk
TTITLE1=Boom Boom
TTITLE2=Dimples
TTITLE3=I'm So Excited
TTITLE4=Peace Lovin' Man
TTITLE5=Whiskey and Women
TTITLE6=Frisco
TTITLE7=Onions
TTITLE8=Send Me The Pillow The You Dream On
TTITLE9=Let's Go Out Tonight
TTITLE10=House Rent Boogie
TTITLE11=Mamma You Got A Daughter
TTITLE12=No Shows
TTITLE13=You Ain't No Big Thing
TTITLE14=Nightmare
EXTD=
EXTT0=
EXTT1=
EXTT2=
EXTT3=
EXTT4=
EXTT5=
EXTT6=
EXTT7=
EXTT8=
EXTT9=
EXTT10=
EXTT11=
EXTT12=
EXTT13=
EXTT14=
PLAYORDER=
